<svg width="26" height="26" viewBox="0 0 26 26" fill="none" xmlns="http://www.w3.org/2000/svg">
<g id="book 2 1" clip-path="url(#clip0_94_2357)">
<g id="Group">
<g id="Group_2">
<path id="Vector" d="M21.8605 0H6.78651C5.00875 0 3.5625 1.44635 3.5625 3.22411V22.7759C3.5625 24.5537 5.0088 26.0001 6.78661 26.0001H21.8605C22.1797 26.0001 22.4384 25.7414 22.4384 25.4222C22.4384 25.41 22.4373 25.398 22.4366 25.3859C22.4373 25.3738 22.4384 25.3619 22.4384 25.3496V5.87037V0.577841C22.4383 0.25868 22.1796 0 21.8605 0ZM6.20872 24.7617C5.34858 24.5109 4.71818 23.716 4.71818 22.776V5.69482C5.13794 6.04679 5.64834 6.29349 6.20872 6.39535V24.7617ZM6.78651 5.29248C5.64601 5.29248 4.71813 4.36456 4.71813 3.22411C4.71813 2.08366 5.64606 1.15573 6.78651 1.15573H19.3898C18.92 1.716 18.6364 2.43745 18.6364 3.22411C18.6364 4.01076 18.92 4.73221 19.3898 5.29248H18.1047H14.8715H6.78651ZM17.5268 6.44822V9.83848L16.8367 9.32467C16.6318 9.17208 16.3511 9.17213 16.1462 9.32493L15.4492 9.84463V6.44822H17.5268ZM21.2827 24.8443H7.36435V6.44822H14.2936V10.9963C14.2936 11.215 14.4169 11.4148 14.6123 11.5128C14.6943 11.554 14.783 11.5742 14.8714 11.5742C14.9936 11.5742 15.1152 11.5354 15.2169 11.4595L16.4919 10.5087L17.7595 11.4526C17.9348 11.5832 18.1688 11.6036 18.364 11.5055C18.5593 11.4075 18.6825 11.2076 18.6825 10.9891V6.44816H21.2827V24.8443ZM21.2827 5.20981C20.4225 4.95905 19.7921 4.16407 19.7921 3.22406C19.7921 2.28404 20.4225 1.48916 21.2826 1.2384V5.20981H21.2827Z" fill="white"/>
</g>
</g>
<g id="Group_3">
<g id="Group_4">
<path id="Vector_2" d="M17.1571 13.8357H11.488C11.1688 13.8357 10.9102 14.0944 10.9102 14.4135C10.9102 14.7327 11.1689 14.9914 11.488 14.9914H17.1571C17.4762 14.9914 17.735 14.7327 17.735 14.4135C17.735 14.0944 17.4762 13.8357 17.1571 13.8357Z" fill="white"/>
</g>
</g>
<g id="Group_5">
<g id="Group_6">
<path id="Vector_3" d="M18.7716 17.4568H9.87276C9.5536 17.4568 9.29492 17.7155 9.29492 18.0346C9.29492 18.3538 9.5536 18.6125 9.87276 18.6125H18.7716C19.0907 18.6125 19.3494 18.3538 19.3494 18.0346C19.3494 17.7155 19.0907 17.4568 18.7716 17.4568Z" fill="white"/>
</g>
</g>
</g>
<defs>
<clipPath id="clip0_94_2357">
<rect width="26" height="26" fill="white"/>
</clipPath>
</defs>
</svg>
