<svg width="26" height="26" viewBox="0 0 26 26" fill="none" xmlns="http://www.w3.org/2000/svg">
<g clip-path="url(#clip0_620_859)">
<path d="M7.80534 17.119H22.1314C23.7558 17.119 25.081 15.7938 25.081 14.1694V8.14188C25.081 8.13654 25.081 8.12585 25.081 8.12051C25.081 8.10448 25.081 8.09379 25.081 8.07776C25.081 8.06707 25.081 8.05639 25.0757 8.0457C25.0757 8.03501 25.0703 8.01898 25.0703 8.00829C25.0703 7.99761 25.065 7.98692 25.065 7.97623C25.0596 7.96555 25.0596 7.95486 25.0543 7.93883C25.0489 7.92814 25.0489 7.91745 25.0436 7.90677C25.0383 7.89608 25.0383 7.88539 25.0329 7.87471C25.0276 7.86402 25.0222 7.85333 25.0169 7.8373C25.0115 7.82661 25.0062 7.81593 25.0008 7.81058C24.9955 7.7999 24.9902 7.78921 24.9848 7.77852C24.9795 7.76784 24.9741 7.76249 24.9688 7.7518C24.9634 7.74112 24.9528 7.73043 24.9474 7.71974C24.9421 7.70906 24.9367 7.70371 24.926 7.69303C24.9207 7.68234 24.91 7.67699 24.9047 7.66631C24.8993 7.65562 24.8886 7.65028 24.8833 7.63959C24.8779 7.6289 24.8673 7.62356 24.8619 7.61822C24.8512 7.60753 24.8459 7.60219 24.8352 7.5915C24.8245 7.58615 24.8192 7.57547 24.8085 7.57012C24.7978 7.56478 24.7871 7.55409 24.7764 7.54875C24.7657 7.54341 24.7604 7.53806 24.7497 7.53272C24.739 7.52738 24.7283 7.52203 24.7176 7.51134C24.707 7.506 24.6963 7.50066 24.6856 7.49531C24.6749 7.48997 24.6642 7.48463 24.6535 7.47928C24.6428 7.47394 24.6321 7.4686 24.6215 7.46325C24.6108 7.45791 24.6001 7.45791 24.5894 7.45257C24.5787 7.44722 24.5627 7.44188 24.552 7.44188C24.5413 7.44188 24.5306 7.43654 24.5253 7.43654C24.5092 7.43119 24.4986 7.43119 24.4825 7.43119C24.4772 7.43119 24.4718 7.42585 24.4612 7.42585L6.30381 4.91973V2.38689C6.30381 2.36017 6.30381 2.33346 6.29846 2.31208C6.29846 2.30674 6.29846 2.30139 6.29312 2.29071C6.29312 2.27468 6.28778 2.25865 6.28778 2.24262C6.28243 2.22659 6.28243 2.2159 6.27709 2.19987C6.27709 2.18918 6.27175 2.18384 6.27175 2.17315C6.2664 2.15712 6.26106 2.14109 6.25571 2.12506C6.25571 2.11971 6.25037 2.10903 6.25037 2.10368C6.24503 2.08765 6.23968 2.07697 6.229 2.06094C6.22365 2.05559 6.22365 2.04491 6.21831 2.03956C6.21297 2.02887 6.20762 2.01819 6.19694 2.0075C6.19159 1.99681 6.18625 1.99147 6.1809 1.98078C6.17556 1.9701 6.17022 1.96475 6.16487 1.95407C6.15953 1.94338 6.14884 1.93269 6.1435 1.922C6.13816 1.91666 6.13281 1.91132 6.12747 1.90597C6.11678 1.89529 6.1061 1.8846 6.09541 1.87391C6.09007 1.86857 6.08472 1.86322 6.07938 1.85788C6.06869 1.84719 6.058 1.83651 6.04197 1.82582C6.03663 1.82048 6.02594 1.81513 6.0206 1.80979C6.00991 1.7991 5.99922 1.79376 5.98854 1.78307C5.97251 1.77238 5.95648 1.7617 5.94579 1.75635C5.94045 1.75101 5.9351 1.75101 5.92976 1.74567C5.90838 1.73498 5.88167 1.72429 5.86029 1.71361L1.9221 0.0571091C1.5534 -0.0978535 1.13126 0.0731397 0.976299 0.441844C0.821336 0.810548 0.992329 1.23269 1.36103 1.38765L4.85571 2.86247V6.13271V6.65104V10.6266V14.1801V18.6687C4.85571 20.1648 5.97785 21.4045 7.42595 21.5916C7.16412 22.0297 7.00915 22.5427 7.00915 23.0878C7.00915 24.6962 8.31832 26 9.92138 26C11.5244 26 12.8336 24.6908 12.8336 23.0878C12.8336 22.5534 12.6893 22.0458 12.4328 21.6183H18.9199C18.6634 22.0511 18.5191 22.5534 18.5191 23.0878C18.5191 24.6962 19.8283 26 21.4314 26C23.0344 26 24.3436 24.6908 24.3436 23.0878C24.3436 21.4847 23.0344 20.1755 21.4314 20.1755H7.80534C6.97175 20.1755 6.29846 19.4969 6.29846 18.6687V16.7129C6.73663 16.9694 7.25496 17.119 7.80534 17.119ZM11.3962 23.0824C11.3962 23.8946 10.7336 24.5519 9.92673 24.5519C9.11985 24.5519 8.45725 23.8893 8.45725 23.0824C8.45725 22.2755 9.11985 21.6129 9.92673 21.6129C10.7336 21.6129 11.3962 22.2702 11.3962 23.0824ZM22.9062 23.0824C22.9062 23.8946 22.2436 24.5519 21.4367 24.5519C20.6298 24.5519 19.9672 23.8893 19.9672 23.0824C19.9672 22.2755 20.6298 21.6129 21.4367 21.6129C22.2436 21.6129 22.9062 22.2702 22.9062 23.0824ZM22.1314 15.6763H7.80534C6.97175 15.6763 6.29846 14.9976 6.29846 14.1694V10.6159V6.64035V6.37317L23.6382 8.76173V14.1641C23.6382 15.003 22.9596 15.6763 22.1314 15.6763Z" fill="white"/>
</g>
<defs>
<clipPath id="clip0_620_859">
<rect width="26" height="26" fill="white"/>
</clipPath>
</defs>
</svg>
