<svg width="30" height="25" viewBox="0 0 30 25" fill="none" xmlns="http://www.w3.org/2000/svg">
<path d="M16.7576 14.4266L22.3951 8.78909L21.1521 7.54614L16.7576 11.9407L14.9998 10.1829L13.7568 11.4258L16.7576 14.4266Z" fill="white"/>
<path d="M23.7891 19.3359H9.72656C9.24193 19.3359 8.84766 18.9417 8.84766 18.457C8.84766 17.9724 9.24193 17.5781 9.72656 17.5781H25.9754L30 3.51562H7.38545L7.01344 2.00484L7.01279 2.00502C6.72896 0.855293 5.68928 0 4.45312 0H2.63672C1.18283 0 0 1.18283 0 2.63672H1.75781C1.75781 2.15209 2.15209 1.75781 2.63672 1.75781H4.45312C4.93775 1.75781 5.33203 2.15209 5.33203 2.63672H5.35875L8.66062 16.0462C7.73637 16.4565 7.08984 17.3824 7.08984 18.457C7.08984 19.9109 8.27268 21.0938 9.72656 21.0938H10.7566C10.6591 21.3688 10.6055 21.6646 10.6055 21.9727C10.6055 23.4265 11.7883 24.6094 13.2422 24.6094C14.6961 24.6094 15.8789 23.4265 15.8789 21.9727C15.8789 21.6646 15.8253 21.3688 15.7277 21.0938H21.3036C21.206 21.3688 21.1524 21.6646 21.1524 21.9727C21.1524 23.4265 22.3352 24.6094 23.7891 24.6094C25.243 24.6094 26.4258 23.4265 26.4258 21.9727C26.4258 20.5188 25.2429 19.3359 23.7891 19.3359ZM27.6697 5.27344L24.6496 15.8203H10.4153L7.81834 5.27344H27.6697ZM14.1211 21.9727C14.1211 22.4573 13.7268 22.8516 13.2422 22.8516C12.7576 22.8516 12.3633 22.4573 12.3633 21.9727C12.3633 21.488 12.7576 21.0938 13.2422 21.0938C13.7268 21.0938 14.1211 21.488 14.1211 21.9727ZM23.7891 22.8516C23.3044 22.8516 22.9102 22.4573 22.9102 21.9727C22.9102 21.488 23.3044 21.0938 23.7891 21.0938C24.2737 21.0938 24.668 21.488 24.668 21.9727C24.668 22.4573 24.2737 22.8516 23.7891 22.8516Z" fill="white"/>
</svg>
