<svg width="11" height="10" viewBox="0 0 11 10" fill="none" xmlns="http://www.w3.org/2000/svg">
<path d="M10.5222 0.177414C10.2838 -0.0591379 9.90141 -0.0591379 9.66301 0.177414L5.81263 3.99794L1.96225 0.177414C1.72386 -0.0591379 1.34152 -0.0591379 1.10312 0.177414C0.864717 0.413965 0.864717 0.793341 1.10312 1.02989L4.9535 4.85042L1.10312 8.67095C0.864717 8.90751 0.864717 9.28688 1.10312 9.52343C1.22007 9.63948 1.3775 9.70196 1.53044 9.70196C1.68337 9.70196 1.84081 9.64394 1.95776 9.52343L5.80814 5.7029L9.65851 9.52343C9.77547 9.63948 9.9329 9.70196 10.0858 9.70196C10.2433 9.70196 10.3962 9.64394 10.5132 9.52343C10.7516 9.28688 10.7516 8.90751 10.5132 8.67095L6.67177 4.85042L10.5222 1.02989C10.7605 0.793341 10.7605 0.413965 10.5222 0.177414Z" fill="white"/>
</svg>
