<svg width="17" height="16" viewBox="0 0 17 16" fill="none" xmlns="http://www.w3.org/2000/svg">
<path d="M13.4787 5.65839L15.9708 7.93607C16.272 8.2152 16.186 8.43039 15.7777 8.43039H13.9083V14.3814C13.9083 14.7898 13.5646 15.1548 13.1562 15.1548H9.91191V10.9865C9.91191 10.5781 9.54684 10.2131 9.13847 10.2131H7.09728C6.68891 10.2131 6.32385 10.5781 6.32385 10.9865V15.1548H3.07953C2.67116 15.1548 2.3061 14.7898 2.3061 14.3814V8.43039H0.458095C0.0497204 8.43039 -0.0362171 8.2152 0.264908 7.93607L7.54828 1.31889C7.84941 1.03976 8.36503 1.03976 8.68678 1.31889L10.3409 2.80114V1.61932C10.3409 1.21095 10.706 0.845886 11.1143 0.845886H12.7258C13.1342 0.845886 13.478 1.21095 13.478 1.61932L13.4787 5.65839Z" fill="#088AF8"/>
</svg>
