<svg width="31" height="25" viewBox="0 0 31 25" fill="none" xmlns="http://www.w3.org/2000/svg">
<path d="M0 24.0547V9.2127C0 4.62269 3.735 0.887695 8.325 0.887695H22.006C26.597 0.887695 30.333 4.62269 30.333 9.2127V11.7727C30.333 16.3627 26.598 20.0977 22.008 20.0977H8.518L0 24.0547ZM8.325 2.7437C4.758 2.7437 1.856 5.6457 1.856 9.2127V21.1457L8.109 18.2407H22.008C25.575 18.2407 28.477 15.3387 28.477 11.7717V9.21169C28.477 5.64469 25.574 2.7427 22.006 2.7427L8.325 2.7437ZM8.937 9.0717C9.912 9.0717 10.702 9.86169 10.702 10.8367C10.702 11.8117 9.912 12.6017 8.937 12.6017C7.962 12.6017 7.172 11.8117 7.172 10.8367C7.172 9.86169 7.962 9.0717 8.937 9.0717ZM21.395 9.0717C22.37 9.0717 23.16 9.86169 23.16 10.8367C23.16 11.8117 22.37 12.6017 21.395 12.6017C20.42 12.6017 19.63 11.8117 19.63 10.8367C19.63 9.86169 20.42 9.0717 21.395 9.0717ZM15.165 9.0717C16.14 9.0717 16.93 9.86169 16.93 10.8367C16.93 11.8117 16.14 12.6017 15.165 12.6017C14.19 12.6017 13.4 11.8117 13.4 10.8367C13.4 9.86169 14.19 9.0717 15.165 9.0717Z" fill="#088AF8"/>
</svg>
