<svg width="30" height="31" viewBox="0 0 30 31" fill="none" xmlns="http://www.w3.org/2000/svg">
<mask id="mask0_529_8833" style="mask-type:luminance" maskUnits="userSpaceOnUse" x="0" y="0" width="30" height="31">
<path d="M0 0.304689H30V30.3047H0V0.304689Z" fill="white"/>
</mask>
<g mask="url(#mask0_529_8833)">
<path d="M17.8242 4.36412C18.8602 4.63149 19.8388 5.04194 20.7374 5.57338C20.7374 5.57338 21.1704 5.14032 21.6567 4.65405C22.0097 4.30061 22.4889 4.10239 22.9883 4.10239C23.4872 4.10239 23.9664 4.30061 24.3195 4.65405C24.7478 5.08243 25.2223 5.55686 25.6506 5.98524C26.0041 6.33826 26.2022 6.81745 26.2022 7.31637C26.2022 7.81582 26.0041 8.29494 25.6506 8.64797C25.1643 9.13424 24.7313 9.56725 24.7313 9.56725C25.2627 10.4658 25.6731 11.4444 25.9406 12.4805H27.2382C28.278 12.4805 29.1211 13.3235 29.1211 14.3633V16.2461C29.1211 17.2859 28.278 18.1289 27.2382 18.1289H25.9406C25.6731 19.1649 25.2627 20.1435 24.7313 21.0421C24.7313 21.0421 25.1643 21.4751 25.6506 21.9613C26.0041 22.3144 26.2022 22.7936 26.2022 23.293C26.2022 23.7919 26.0041 24.2711 25.6506 24.6241C25.2223 25.0525 24.7478 25.527 24.3195 25.9553C23.9664 26.3088 23.4872 26.5069 22.9883 26.5069C22.4889 26.5069 22.0097 26.3088 21.6567 25.9553C21.1704 25.469 20.7374 25.036 20.7374 25.036C19.8388 25.5674 18.8602 25.9779 17.8242 26.2452V27.5429C17.8242 28.5827 16.9812 29.4258 15.9414 29.4258H14.0586C13.0188 29.4258 12.1758 28.5827 12.1758 27.5429V26.2452C11.1398 25.9779 10.1612 25.5674 9.26256 25.036C9.26256 25.036 8.82955 25.469 8.34328 25.9553C7.99025 26.3088 7.51107 26.5069 7.01168 26.5069C6.51275 26.5069 6.03352 26.3088 5.68055 25.9553C5.25223 25.527 4.77773 25.0525 4.34936 24.6241C3.99592 24.2711 3.7977 23.7919 3.7977 23.293C3.7977 22.7936 3.99592 22.3144 4.34936 21.9613C4.83563 21.4751 5.26869 21.0421 5.26869 21.0421C4.73725 20.1435 4.32686 19.1649 4.05943 18.1289H2.76176C1.72195 18.1289 0.878906 17.2859 0.878906 16.2461V14.3633C0.878906 13.3235 1.72195 12.4805 2.76176 12.4805H4.05943C4.32686 11.4444 4.73725 10.4658 5.26869 9.56725C5.26869 9.56725 4.83563 9.13424 4.34936 8.64797C3.99592 8.29494 3.7977 7.81582 3.7977 7.31637C3.7977 6.81745 3.99592 6.33826 4.34936 5.98524C4.77773 5.55686 5.25223 5.08243 5.68055 4.65405C6.03352 4.30061 6.51275 4.10239 7.01168 4.10239C7.51107 4.10239 7.99025 4.30061 8.34328 4.65405C8.82955 5.14032 9.26256 5.57338 9.26256 5.57338C10.1612 5.04194 11.1398 4.63149 12.1758 4.36412V3.06639C12.1758 2.02659 13.0188 1.1836 14.0586 1.1836H15.9414C16.9812 1.1836 17.8242 2.02659 17.8242 3.06639V4.36412Z" stroke="white" stroke-width="1.83594" stroke-miterlimit="10" stroke-linecap="round" stroke-linejoin="round"/>
<path d="M15.001 9.65625C18.1185 9.65625 20.6494 12.1872 20.6494 15.3047C20.6494 18.4221 18.1185 20.9531 15.001 20.9531C11.8835 20.9531 9.35254 18.4221 9.35254 15.3047C9.35254 12.1872 11.8835 9.65625 15.001 9.65625Z" stroke="white" stroke-width="1.83594" stroke-miterlimit="10" stroke-linecap="round" stroke-linejoin="round"/>
</g>
</svg>
