<svg width="26" height="26" viewBox="0 0 26 26" fill="none" xmlns="http://www.w3.org/2000/svg">
<g id="video-camera 1" clip-path="url(#clip0_94_2336)">
<g id="Group">
<g id="Group_2">
<g id="Group_3">
<path id="Vector" d="M5.07812 15.2344C5.63904 15.2344 6.09375 14.7797 6.09375 14.2188C6.09375 13.6578 5.63904 13.2031 5.07812 13.2031C4.51721 13.2031 4.0625 13.6578 4.0625 14.2188C4.0625 14.7797 4.51721 15.2344 5.07812 15.2344Z" fill="white"/>
<path id="Vector_2" d="M24.9844 17.1133C25.5453 17.1133 26 16.6586 26 16.0977V11.5781C26 11.2117 25.8027 10.8737 25.4836 10.6937C25.1645 10.5136 24.7732 10.5192 24.4595 10.7086L20.3632 13.1811C20.3555 11.7482 19.6015 10.4894 18.4716 9.77194C19.6309 8.74768 20.3633 7.25085 20.3633 5.58594C20.3633 2.50585 17.8574 0 14.7773 0C11.706 0 9.20598 2.49158 9.19176 5.55963C8.746 3.45952 6.87746 1.87891 4.64648 1.87891C2.08442 1.87891 0 3.96332 0 6.52539C0 7.907 0.606328 9.14941 1.5666 10.0013C0.614148 10.7454 0 11.9035 0 13.2031V21.9375C0 24.1776 1.82244 26 4.0625 26H16.3008C18.5408 26 20.3633 24.1776 20.3633 21.9375V21.8948L24.4653 24.3339C24.7792 24.5205 25.1691 24.5242 25.4865 24.3437C25.8039 24.1632 26 23.8261 26 23.4609V21.1758C26 20.6149 25.5453 20.1602 24.9844 20.1602C24.4234 20.1602 23.9688 20.6149 23.9688 21.1758V21.6755L19.8667 19.2364C19.5528 19.0497 19.1629 19.0461 18.8455 19.2266C18.5281 19.4071 18.332 19.7442 18.332 20.1094V21.9375C18.332 23.0575 17.4208 23.9688 16.3008 23.9688H4.0625C2.94247 23.9688 2.03125 23.0575 2.03125 21.9375V13.2031C2.03125 12.0831 2.94247 11.1719 4.0625 11.1719H16.3008C17.4208 11.1719 18.332 12.0831 18.332 13.2031V14.9805C18.332 15.3469 18.5294 15.6848 18.8484 15.8649C19.1675 16.045 19.5588 16.0394 19.8725 15.8499L23.9688 13.3775V16.0977C23.9688 16.6586 24.4234 17.1133 24.9844 17.1133ZM4.64648 9.14062C3.20445 9.14062 2.03125 7.96743 2.03125 6.52539C2.03125 5.08336 3.20445 3.91016 4.64648 3.91016C6.08852 3.91016 7.26172 5.08336 7.26172 6.52539C7.26172 7.96743 6.08852 9.14062 4.64648 9.14062ZM8.48504 9.14062C8.97447 8.42451 9.26905 7.56524 9.2915 6.6396C9.47121 7.57707 9.88564 8.43213 10.4716 9.14062H8.48504ZM14.7773 9.14062C12.8173 9.14062 11.2227 7.54599 11.2227 5.58594C11.2227 3.62588 12.8173 2.03125 14.7773 2.03125C16.7374 2.03125 18.332 3.62588 18.332 5.58594C18.332 7.54599 16.7374 9.14062 14.7773 9.14062Z" fill="white"/>
</g>
</g>
</g>
</g>
<defs>
<clipPath id="clip0_94_2336">
<rect width="26" height="26" fill="white"/>
</clipPath>
</defs>
</svg>
